<svg id="aed17c94-0e0d-4cd6-a187-5ca4793754cc" data-name="Layer 1" xmlns="http://www.w3.org/2000/svg" width="760" height="717.479"><defs><style>.add1986d-ce5c-4211-952c-0e5c52fcc7b8{fill:#adadad}.af740b2b-4498-4129-a2c2-427d08fe0d84,.ba0ba618-a238-4c42-96ef-5d64ec41f230,.bd21a890-6ba9-46e5-a1a4-d688cbc3cf91{fill:none}.bd21a890-6ba9-46e5-a1a4-d688cbc3cf91{stroke:#f3f3f3}.ba0ba618-a238-4c42-96ef-5d64ec41f230,.bd21a890-6ba9-46e5-a1a4-d688cbc3cf91{stroke-miterlimit:10}.aa9c5040-2625-4495-ab84-589517e5cccc,.ba0ba618-a238-4c42-96ef-5d64ec41f230,.bd21a890-6ba9-46e5-a1a4-d688cbc3cf91{stroke-width:1.5px}.bd412a3c-79fb-481f-8d47-329a341f3fd3{fill:#eaebf3}.ba0ba618-a238-4c42-96ef-5d64ec41f230{stroke:#e1e1ed}.af740b2b-4498-4129-a2c2-427d08fe0d84{stroke:#151515}.aa9c5040-2625-4495-ab84-589517e5cccc,.af740b2b-4498-4129-a2c2-427d08fe0d84{stroke-linecap:round;stroke-linejoin:round}.b97d78a9-e558-457c-8232-6a70ecb2aec7,.b9d9b81c-c16c-4928-bccc-677b07138467{fill:#151515}.bd0c66b1-a919-487f-b463-8c1b823d3cc5{fill:#e8e8e8}.b97d78a9-e558-457c-8232-6a70ecb2aec7,.f33b1571-1497-41b4-98ba-ef852dd9280b{font-size:12px;font-family:RedHatText,&quot;Red Hat Text&quot;,Overpass,&quot;Helvetica Neue&quot;,Arial,sans-serif;font-weight:500}.ac583315-7bcd-4b43-ad61-c35f0a2504e9{font-family:RedHatText,&quot;Red Hat Text&quot;,Overpass,&quot;Helvetica Neue&quot;,Arial,sans-serif;font-weight:700}.b1d00acf-4404-44c9-a26f-615f145b4656{fill:#353789}.aa9c5040-2625-4495-ab84-589517e5cccc,.ac583315-7bcd-4b43-ad61-c35f0a2504e9,.f33b1571-1497-41b4-98ba-ef852dd9280b{fill:#fff}.ac583315-7bcd-4b43-ad61-c35f0a2504e9{font-size:10px}.aa9c5040-2625-4495-ab84-589517e5cccc{stroke:#5b5b5b}</style></defs><path class="add1986d-ce5c-4211-952c-0e5c52fcc7b8" d="M134 308.425v208H1v-208h133m1-1H0v210h135v-210z"/><path class="bd21a890-6ba9-46e5-a1a4-d688cbc3cf91" d="M125 392.425v115H25"/><path class="bd21a890-6ba9-46e5-a1a4-d688cbc3cf91" d="M120 387.425v115H20"/><path class="bd412a3c-79fb-481f-8d47-329a341f3fd3" d="M15 382.425h100v115H15z"/><path class="ba0ba618-a238-4c42-96ef-5d64ec41f230" d="M100 442.425v40H40"/><path class="ba0ba618-a238-4c42-96ef-5d64ec41f230" d="M95 437.425v40H35"/><path class="bd21a890-6ba9-46e5-a1a4-d688cbc3cf91" d="M279.688 427.425v80h-100"/><path class="bd21a890-6ba9-46e5-a1a4-d688cbc3cf91" d="M274.688 422.425v80h-100"/><path class="af740b2b-4498-4129-a2c2-427d08fe0d84" d="M579.532 188.985h45.167"/><path class="b9d9b81c-c16c-4928-bccc-677b07138467" d="M623.24 193.972l8.635-4.987-8.635-4.986v9.973z"/><path class="af740b2b-4498-4129-a2c2-427d08fe0d84" d="M115 188.985h45.324"/><path class="b9d9b81c-c16c-4928-bccc-677b07138467" d="M158.865 193.972l8.635-4.987-8.635-4.986v9.973z"/><path class="af740b2b-4498-4129-a2c2-427d08fe0d84" d="M220 228.985v178.764"/><path class="b9d9b81c-c16c-4928-bccc-677b07138467" d="M215.014 406.29l4.986 8.635 4.986-8.635h-9.972z"/><path class="af740b2b-4498-4129-a2c2-427d08fe0d84" d="M235 228.985v58.5l139.532.597v119.667"/><path class="b9d9b81c-c16c-4928-bccc-677b07138467" d="M369.545 406.29l4.987 8.635 4.986-8.635h-9.973z"/><path class="af740b2b-4498-4129-a2c2-427d08fe0d84" d="M205 228.985v58.5H90v11.109"/><path class="b9d9b81c-c16c-4928-bccc-677b07138467" d="M85.014 297.135L90 305.771l4.986-8.636h-9.972z"/><path class="bd0c66b1-a919-487f-b463-8c1b823d3cc5" d="M15 148.985h100v80H15z"/><text class="b97d78a9-e558-457c-8232-6a70ecb2aec7" transform="translate(43.389 179.309)">Virtual-<tspan x="-4.872" y="13">Machine-</tspan><tspan x="2.598" y="26">Import</tspan></text><path class="bd412a3c-79fb-481f-8d47-329a341f3fd3" d="M15 322.485h100v55H15z"/><text class="b97d78a9-e558-457c-8232-6a70ecb2aec7" transform="translate(40.761 346.809)">Provider<tspan x="14.322" y="13">API</tspan></text><text transform="translate(30 407.529)" font-family="RedHatText,&quot;Red Hat Text&quot;,Overpass,&quot;Helvetica Neue&quot;,Arial,sans-serif" font-weight="700" font-size="11" fill="#151515">Virtual<tspan x="0" y="12">machine</tspan></text><path class="b1d00acf-4404-44c9-a26f-615f145b4656" d="M170 557.485h100v80H170z"/><text class="f33b1571-1497-41b4-98ba-ef852dd9280b" transform="translate(209.549 594.532)">CDI<tspan x="-18.216" y="13">Controller</tspan></text><path class="b1d00acf-4404-44c9-a26f-615f145b4656" d="M479.532 148.985h100v80h-100z"/><text class="f33b1571-1497-41b4-98ba-ef852dd9280b" transform="translate(504.392 185.809)">KubeVirt<tspan x="-3.528" y="13">Controller</tspan></text><path class="bd0c66b1-a919-487f-b463-8c1b823d3cc5" d="M634.375 148.985h100v80h-100z"/><text class="b97d78a9-e558-457c-8232-6a70ecb2aec7" transform="translate(650.596 185.809)">&lt;VM_name&gt;<tspan x="22.866" y="13">pod</tspan></text><path class="af740b2b-4498-4129-a2c2-427d08fe0d84" d="M219.688 497.425v50.324"/><path class="b9d9b81c-c16c-4928-bccc-677b07138467" d="M214.701 546.29l4.987 8.635 4.986-8.635h-9.973z"/><path class="af740b2b-4498-4129-a2c2-427d08fe0d84" d="M220 93.985v45.324"/><path class="b9d9b81c-c16c-4928-bccc-677b07138467" d="M215.014 137.85l4.986 8.635 4.987-8.635h-9.973z"/><path class="af740b2b-4498-4129-a2c2-427d08fe0d84" d="M65 88.985v50.324"/><path class="b9d9b81c-c16c-4928-bccc-677b07138467" d="M60.014 137.85L65 146.485l4.986-8.635h-9.972z"/><path class="bd0c66b1-a919-487f-b463-8c1b823d3cc5" d="M169.688 417.425h100v80h-100z"/><text class="b97d78a9-e558-457c-8232-6a70ecb2aec7" transform="translate(206.153 454.249)">Data<tspan x="-7.932" y="13">Volume</tspan></text><path class="bd21a890-6ba9-46e5-a1a4-d688cbc3cf91" d="M125 567.485v80H25"/><path class="bd21a890-6ba9-46e5-a1a4-d688cbc3cf91" d="M120 562.485v80H20"/><text class="b97d78a9-e558-457c-8232-6a70ecb2aec7" transform="translate(0 282.99)">Source<tspan x="0" y="13">Provider</tspan></text><path class="af740b2b-4498-4129-a2c2-427d08fe0d84" d="M52.493 293.555l18.695 13.674M609.574 457.425h-1.5"/><path stroke-dasharray="3.024 3.024" stroke-linecap="round" stroke-linejoin="round" stroke="#151515" fill="none" d="M605.05 457.425H437.22"/><path class="af740b2b-4498-4129-a2c2-427d08fe0d84" d="M435.708 457.425h-1.5"/><path class="b9d9b81c-c16c-4928-bccc-677b07138467" d="M608.115 452.439l8.635 4.986-8.635 4.987v-9.973zM435.667 452.439l-8.635 4.986 8.635 4.987v-9.973z"/><path class="af740b2b-4498-4129-a2c2-427d08fe0d84" d="M90 457.425h1.5"/><path stroke-dasharray="2.927 2.927" stroke-linecap="round" stroke-linejoin="round" stroke="#151515" fill="none" d="M94.427 457.425h62.933"/><path class="af740b2b-4498-4129-a2c2-427d08fe0d84" d="M158.824 457.425h1.5"/><path class="b9d9b81c-c16c-4928-bccc-677b07138467" d="M158.865 462.412l8.635-4.987-8.635-4.986v9.973z"/><path class="af740b2b-4498-4129-a2c2-427d08fe0d84" d="M65 557.485v-1.5"/><path stroke-dasharray="3.039 3.039" stroke-linecap="round" stroke-linejoin="round" stroke="#151515" fill="none" d="M65 552.946v-77.501"/><path class="af740b2b-4498-4129-a2c2-427d08fe0d84" d="M65 473.925v-1.5"/><path class="bd0c66b1-a919-487f-b463-8c1b823d3cc5" d="M324.532 417.425h100v80h-100z"/><text class="b97d78a9-e558-457c-8232-6a70ecb2aec7" transform="translate(342.6 454.249)">Conversion<tspan x="21.018" y="13">pod</tspan></text><path class="add1986d-ce5c-4211-952c-0e5c52fcc7b8" d="M748.25 403.425v248h-128v-248h128m1-1h-130v250h130v-250z"/><path class="bd21a890-6ba9-46e5-a1a4-d688cbc3cf91" d="M759.25 412.425v250h-130"/><path class="bd21a890-6ba9-46e5-a1a4-d688cbc3cf91" d="M754.25 407.425v250h-130"/><path class="bd0c66b1-a919-487f-b463-8c1b823d3cc5" d="M634.25 557.425h100v80h-100z"/><text class="b97d78a9-e558-457c-8232-6a70ecb2aec7" transform="translate(655.223 594.249)">Persistent<tspan x="7.56" y="13">Volume</tspan></text><path class="af740b2b-4498-4129-a2c2-427d08fe0d84" d="M587.34 406.425l31.079 22.732"/><text class="b97d78a9-e558-457c-8232-6a70ecb2aec7" transform="translate(537.9 382.529)">Dynamically<tspan x="0" y="13">provisioned</tspan><tspan x="0" y="26">storage</tspan></text><path class="af740b2b-4498-4129-a2c2-427d08fe0d84" d="M684.375 497.485v50.324"/><path class="b9d9b81c-c16c-4928-bccc-677b07138467" d="M679.389 546.35l4.986 8.635 4.986-8.635h-9.972z"/><path class="bd0c66b1-a919-487f-b463-8c1b823d3cc5" d="M634.25 417.485h100v80h-100z"/><text class="b97d78a9-e558-457c-8232-6a70ecb2aec7" transform="translate(655.223 454.309)">Persistent<tspan x="-9.708" y="13">Volume Claim</tspan></text><path class="b9d9b81c-c16c-4928-bccc-677b07138467" d="M74 116.486a9 9 0 11-9-9 9 9 0 019 9z"/><text class="ac583315-7bcd-4b43-ad61-c35f0a2504e9" transform="translate(63.075 119.771)">1</text><path class="af740b2b-4498-4129-a2c2-427d08fe0d84" d="M124.676 597.485H170"/><path class="b9d9b81c-c16c-4928-bccc-677b07138467" d="M126.135 602.472l-8.635-4.987 8.635-4.986v9.973zM161.344 597.486a9 9 0 11-9-9 9 9 0 019 9z"/><text class="ac583315-7bcd-4b43-ad61-c35f0a2504e9" transform="translate(149.088 600.771)">6</text><path class="b9d9b81c-c16c-4928-bccc-677b07138467" d="M229 116.486a9 9 0 11-9-9 9 9 0 019 9z"/><text class="ac583315-7bcd-4b43-ad61-c35f0a2504e9" transform="translate(216.834 119.771)">3</text><path class="b9d9b81c-c16c-4928-bccc-677b07138467" d="M228.688 287.486a9 9 0 11-9-9 9 9 0 019 9z"/><text class="ac583315-7bcd-4b43-ad61-c35f0a2504e9" transform="translate(216.237 290.771)">4</text><g><path class="b9d9b81c-c16c-4928-bccc-677b07138467" d="M161.344 287.486a9 9 0 11-9-9 9 9 0 019 9z"/><text class="ac583315-7bcd-4b43-ad61-c35f0a2504e9" transform="translate(149.178 290.771)">3</text></g><g><path class="b9d9b81c-c16c-4928-bccc-677b07138467" d="M294.688 287.486a9 9 0 11-9-9 9 9 0 019 9z"/><text class="ac583315-7bcd-4b43-ad61-c35f0a2504e9" transform="translate(282.498 290.77)">8</text></g><g><path class="b9d9b81c-c16c-4928-bccc-677b07138467" d="M74 537.456a9 9 0 11-9-9 9 9 0 019 9z"/><text class="ac583315-7bcd-4b43-ad61-c35f0a2504e9" transform="translate(61.91 540.741)">7</text></g><g><path class="b9d9b81c-c16c-4928-bccc-677b07138467" d="M609.307 188.986a9 9 0 11-9-9 9 9 0 019 9z"/><text class="ac583315-7bcd-4b43-ad61-c35f0a2504e9" transform="translate(594.928 192.271)">10</text></g><g><path class="bd0c66b1-a919-487f-b463-8c1b823d3cc5" d="M169.844 23.985h100v70h-100z"/><text class="b97d78a9-e558-457c-8232-6a70ecb2aec7" transform="translate(195.604 56.032)">Provider<tspan x="-8.166" y="13">Credentials</tspan></text></g><g><text transform="translate(53.042 80.817)" font-size="11" font-family="RedHatText,&quot;Red Hat Text&quot;,Overpass,&quot;Helvetica Neue&quot;,Arial,sans-serif" font-weight="500" fill="#151515">User</text><path class="aa9c5040-2625-4495-ab84-589517e5cccc" d="M86.641 64.25a21.641 21.641 0 10-43.282 0z"/><ellipse class="aa9c5040-2625-4495-ab84-589517e5cccc" cx="65" cy="31.651" rx="10.865" ry="10.902"/></g><path fill="#f5f5f9" d="M30 432.425h60v40H30z"/><text class="b97d78a9-e558-457c-8232-6a70ecb2aec7" transform="translate(50.478 449.249)">VM<tspan x="-1.77" y="13">disk</tspan></text><g><path class="af740b2b-4498-4129-a2c2-427d08fe0d84" d="M270 173.985h32.5v-27.5h12.824"/><path class="b9d9b81c-c16c-4928-bccc-677b07138467" d="M313.865 151.472l8.635-4.987-8.635-4.986v9.973z"/></g><g><path class="af740b2b-4498-4129-a2c2-427d08fe0d84" d="M270 203.985h32.5v27.5h12.824"/><path class="b9d9b81c-c16c-4928-bccc-677b07138467" d="M313.865 236.472l8.635-4.987-8.635-4.986v9.973z"/></g><g><path class="b9d9b81c-c16c-4928-bccc-677b07138467" d="M294.645 173.986a9 9 0 11-9-9 9 9 0 019 9z"/><text class="ac583315-7bcd-4b43-ad61-c35f0a2504e9" transform="translate(282.659 177.271)">2</text></g><g><path class="b9d9b81c-c16c-4928-bccc-677b07138467" d="M294.645 203.986a9 9 0 11-9-9 9 9 0 019 9z"/><text class="ac583315-7bcd-4b43-ad61-c35f0a2504e9" transform="translate(282.409 207.271)">9</text></g><g><path class="af740b2b-4498-4129-a2c2-427d08fe0d84" d="M469.824 181.485H459.5v-35h-35"/><path class="b9d9b81c-c16c-4928-bccc-677b07138467" d="M468.365 176.499l8.635 4.986-8.635 4.987v-9.973z"/></g><g><path class="af740b2b-4498-4129-a2c2-427d08fe0d84" d="M469.824 196.485H459.5v35h-35"/><path class="b9d9b81c-c16c-4928-bccc-677b07138467" d="M468.365 191.499l8.635 4.986-8.635 4.987v-9.973z"/></g><path class="b1d00acf-4404-44c9-a26f-615f145b4656" d="M170 148.985h100v80H170z"/><text class="f33b1571-1497-41b4-98ba-ef852dd9280b" transform="translate(201.161 172.809)">Virtual<tspan x="-4.872" y="13">Machine</tspan><tspan x="-.174" y="26">Import</tspan><tspan x="-9.828" y="39">Controller</tspan></text><g><path class="bd0c66b1-a919-487f-b463-8c1b823d3cc5" d="M324.688 191.485h100v80h-100z"/><text class="b97d78a9-e558-457c-8232-6a70ecb2aec7" transform="translate(353.077 223.532)">Virtual-<tspan x="-4.872" y="13">Machine-</tspan><tspan x="-2.268" y="26">Instance</tspan></text><path class="bd0c66b1-a919-487f-b463-8c1b823d3cc5" d="M324.688 106.485h100v80h-100z"/><text class="b97d78a9-e558-457c-8232-6a70ecb2aec7" transform="translate(353.077 144.809)">Virtual-<tspan x="-2.101" y="13">Machine</tspan></text></g><g><path class="af740b2b-4498-4129-a2c2-427d08fe0d84" d="M270 597.485h339.574"/><path class="b9d9b81c-c16c-4928-bccc-677b07138467" d="M608.115 602.472l8.635-4.987-8.635-4.986v9.973z"/></g><g><path class="b9d9b81c-c16c-4928-bccc-677b07138467" d="M383.532 597.486a9 9 0 11-9-9 9 9 0 019 9z"/><text class="ac583315-7bcd-4b43-ad61-c35f0a2504e9" transform="translate(371.451 600.771)">5</text></g><g><path class="af740b2b-4498-4129-a2c2-427d08fe0d84" d="M684.375 238.661v1.5"/><path stroke-dasharray="2.964 2.964" stroke-linecap="round" stroke-linejoin="round" stroke="#151515" fill="none" d="M684.375 243.125v146.702"/><path class="af740b2b-4498-4129-a2c2-427d08fe0d84" d="M684.375 391.309v1.5"/><path class="b9d9b81c-c16c-4928-bccc-677b07138467" d="M679.389 240.12l4.986-8.635 4.987 8.635h-9.973zM679.389 391.35l4.986 8.635 4.987-8.635h-9.973z"/></g><g><path class="af740b2b-4498-4129-a2c2-427d08fe0d84" d="M65 637.482v1.5"/><path stroke-dasharray="2.842 2.842" stroke-linecap="round" stroke-linejoin="round" stroke="#151515" fill="none" d="M65 641.824v32.678"/><path class="af740b2b-4498-4129-a2c2-427d08fe0d84" d="M65 675.923v1.5h1.5"/><path stroke-dasharray="3.006 3.006" stroke-linecap="round" stroke-linejoin="round" stroke="#151515" fill="none" d="M69.505 677.423h611.742"/><path class="af740b2b-4498-4129-a2c2-427d08fe0d84" d="M682.75 677.423h1.5v-1.5"/><path stroke-dasharray="3.029 3.029" stroke-linecap="round" stroke-linejoin="round" stroke="#151515" fill="none" d="M684.25 672.893v-22.72"/><path class="af740b2b-4498-4129-a2c2-427d08fe0d84" d="M684.25 648.659v-1.5"/><path class="b9d9b81c-c16c-4928-bccc-677b07138467" d="M689.236 648.618l-4.986-8.636-4.986 8.636h9.972z"/></g><g><path class="b9d9b81c-c16c-4928-bccc-677b07138467" d="M383.532 677.423a9 9 0 11-9-9 9 9 0 019 9z"/><text class="ac583315-7bcd-4b43-ad61-c35f0a2504e9" transform="translate(371.441 680.708)">7</text></g><path class="bd0c66b1-a919-487f-b463-8c1b823d3cc5" d="M15 557.485h100v80H15z"/><text class="b97d78a9-e558-457c-8232-6a70ecb2aec7" transform="translate(40.191 594.532)">Importer<tspan x="13.896" y="13">pod</tspan></text><g><text transform="translate(722.091 700.497)" fill="#f3f3f3" font-family="RedHatText,&quot;Red Hat Text&quot;,Overpass,&quot;Helvetica Neue&quot;,Arial,sans-serif" font-size="10">136_0121</text><path fill="none" d="M0 677.479h760v40H0z"/></g></svg>
