<?xml version="1.0" encoding="UTF-8" standalone="no"?>
<svg
   xmlns:dc="http://purl.org/dc/elements/1.1/"
   xmlns:cc="http://creativecommons.org/ns#"
   xmlns:rdf="http://www.w3.org/1999/02/22-rdf-syntax-ns#"
   xmlns:svg="http://www.w3.org/2000/svg"
   xmlns="http://www.w3.org/2000/svg"
   xmlns:sodipodi="http://sodipodi.sourceforge.net/DTD/sodipodi-0.dtd"
   xmlns:inkscape="http://www.inkscape.org/namespaces/inkscape"
   width="250"
   height="250"
   viewBox="0 0 66.145832 66.145835"
   version="1.1"
   id="svg2529"
   inkscape:version="1.0.1 (3bc2e813f5, 2020-09-07)"
   sodipodi:docname="forklift-logo-darkbg.svg">
  <defs
     id="defs2523">
    <inkscape:perspective
       sodipodi:type="inkscape:persp3d"
       inkscape:vp_x="0 : 33.072918 : 1"
       inkscape:vp_y="0 : 1000 : 0"
       inkscape:vp_z="66.145832 : 33.072918 : 1"
       inkscape:persp3d-origin="33.072916 : 22.048612 : 1"
       id="perspective3190" />
  </defs>
  <sodipodi:namedview
     id="base"
     pagecolor="#242424"
     bordercolor="#666666"
     borderopacity="1.0"
     inkscape:pageopacity="0"
     inkscape:pageshadow="2"
     inkscape:zoom="2.8"
     inkscape:cx="114.39502"
     inkscape:cy="143.97234"
     inkscape:document-units="mm"
     inkscape:current-layer="g3188"
     inkscape:document-rotation="0"
     showgrid="false"
     inkscape:window-width="1920"
     inkscape:window-height="1136"
     inkscape:window-x="0"
     inkscape:window-y="27"
     inkscape:window-maximized="0"
     units="px"
     inkscape:showpageshadow="false" />
  <metadata
     id="metadata2526">
    <rdf:RDF>
      <cc:Work
         rdf:about="">
        <dc:format>image/svg+xml</dc:format>
        <dc:type
           rdf:resource="http://purl.org/dc/dcmitype/StillImage" />
        <dc:title></dc:title>
      </cc:Work>
    </rdf:RDF>
  </metadata>
  <g
     inkscape:label="Layer 1"
     inkscape:groupmode="layer"
     id="layer1">
    <rect
       style="vector-effect:none;fill:#000000;fill-opacity:1;stroke:none;stroke-width:0.0625697;stroke-linecap:round;stroke-linejoin:round;stroke-miterlimit:4;stroke-dasharray:none;stroke-dashoffset:0;stroke-opacity:0.377953;paint-order:markers fill stroke"
       id="rect6667-6"
       width="7.2781544"
       height="2.8356445"
       x="33.530811"
       y="19.756353"
       rx="0"
       ry="0"
       transform="rotate(-14.953832)" />
    <g
       id="g3188"
       transform="matrix(1.6622195,0,0,1.6622195,-22.76565,-24.787654)"
       style="stroke-width:0.601605">
      <g
         aria-label="FORKLIFT"
         transform="scale(1.0317449,0.96923184)"
         id="text871"
         style="font-style:normal;font-weight:normal;font-size:6.43512px;line-height:1.25;font-family:sans-serif;text-align:center;letter-spacing:0px;word-spacing:0px;text-anchor:middle;fill:#ffffff;fill-opacity:1;stroke:none;stroke-width:0.141691">
        <path
           d="m 17.430239,52.359299 v -4.568936 h 3.133903 v 1.093971 h -1.879055 v 0.759344 h 1.531559 v 1.016749 h -1.531559 v 1.698872 z"
           style="font-style:normal;font-variant:normal;font-weight:900;font-stretch:normal;font-family:Raleway;-inkscape-font-specification:'Raleway Heavy';text-align:center;text-anchor:middle;fill:#ffffff;fill-opacity:1;stroke-width:0.141691"
           id="path3274" />
        <path
           d="m 23.054527,52.397909 q -0.521245,0 -0.945963,-0.199488 -0.424718,-0.199489 -0.727169,-0.521245 -0.30245,-0.328191 -0.469763,-0.746474 -0.167313,-0.418283 -0.167313,-0.862306 0,-0.450458 0.173748,-0.868741 0.173748,-0.418283 0.482634,-0.733604 0.315321,-0.321756 0.740039,-0.508374 0.431153,-0.193054 0.939527,-0.193054 0.521245,0 0.945963,0.199489 0.424718,0.199488 0.727168,0.52768 0.302451,0.328191 0.463329,0.746473 0.167313,0.418283 0.167313,0.855871 0,0.450459 -0.173748,0.868742 -0.173748,0.411847 -0.482634,0.733603 -0.308886,0.315321 -0.740039,0.508375 -0.424718,0.193053 -0.933092,0.193053 z m -1.036055,-2.316643 q 0,0.231665 0.06435,0.450459 0.06435,0.212359 0.193053,0.379672 0.128703,0.167313 0.321756,0.270275 0.199489,0.102962 0.469764,0.102962 0.270275,0 0.469764,-0.102962 0.199488,-0.109397 0.321756,-0.27671 0.128702,-0.173749 0.186618,-0.392543 0.06435,-0.218794 0.06435,-0.444023 0,-0.231664 -0.06435,-0.444023 -0.06435,-0.218794 -0.199489,-0.379672 -0.128702,-0.167314 -0.328191,-0.26384 -0.193053,-0.102962 -0.456893,-0.102962 -0.270275,0 -0.469764,0.102962 -0.193054,0.102962 -0.321756,0.27671 -0.128702,0.167313 -0.193054,0.386107 -0.05792,0.212359 -0.05792,0.437588 z"
           style="font-style:normal;font-variant:normal;font-weight:900;font-stretch:normal;font-family:Raleway;-inkscape-font-specification:'Raleway Heavy';text-align:center;text-anchor:middle;fill:#ffffff;fill-opacity:1;stroke-width:0.141691"
           id="path3276" />
        <path
           d="m 25.918152,52.359299 v -4.568936 h 2.097849 q 0.334626,0 0.617771,0.141573 0.283146,0.135138 0.482634,0.360367 0.205924,0.218794 0.321756,0.508374 0.115833,0.283146 0.115833,0.572726 0,0.398977 -0.173749,0.746474 -0.173748,0.341061 -0.482634,0.559855 l 0.965268,1.679567 h -1.415726 l -0.80439,-1.402856 H 27.173 v 1.402856 z M 27.173,49.862472 h 0.79152 q 0.115832,0 0.212359,-0.128702 0.102962,-0.128703 0.102962,-0.360367 0,-0.238099 -0.115832,-0.360367 -0.115832,-0.128702 -0.231665,-0.128702 H 27.173 Z"
           style="font-style:normal;font-variant:normal;font-weight:900;font-stretch:normal;font-family:Raleway;-inkscape-font-specification:'Raleway Heavy';text-align:center;text-anchor:middle;fill:#ffffff;fill-opacity:1;stroke-width:0.141691"
           id="path3278" />
        <path
           d="m 30.261852,52.359299 v -4.568936 h 1.254849 v 1.737483 l 1.389986,-1.737483 h 1.415726 l -1.660261,2.046369 1.776093,2.522567 h -1.441467 l -1.132581,-1.679567 -0.347496,0.360367 v 1.3192 z"
           style="font-style:normal;font-variant:normal;font-weight:900;font-stretch:normal;font-family:Raleway;-inkscape-font-specification:'Raleway Heavy';text-align:center;text-anchor:middle;fill:#ffffff;fill-opacity:1;stroke-width:0.141691"
           id="path3280" />
        <path
           d="m 34.702078,52.359299 v -4.568936 h 1.254848 v 3.474965 h 2.072109 v 1.093971 z"
           style="font-style:normal;font-variant:normal;font-weight:900;font-stretch:normal;font-family:Raleway;-inkscape-font-specification:'Raleway Heavy';text-align:center;text-anchor:middle;fill:#ffffff;fill-opacity:1;stroke-width:0.141691"
           id="path3282" />
        <path
           d="m 38.466616,52.359299 v -4.568936 h 1.254848 v 4.568936 z"
           style="font-style:normal;font-variant:normal;font-weight:900;font-stretch:normal;font-family:Raleway;-inkscape-font-specification:'Raleway Heavy';text-align:center;text-anchor:middle;fill:#ffffff;fill-opacity:1;stroke-width:0.141691"
           id="path3284" />
        <path
           d="m 40.506546,52.359299 v -4.568936 h 3.133903 v 1.093971 h -1.879055 v 0.759344 h 1.531559 v 1.016749 h -1.531559 v 1.698872 z"
           style="font-style:normal;font-variant:normal;font-weight:900;font-stretch:normal;font-family:Raleway;-inkscape-font-specification:'Raleway Heavy';text-align:center;text-anchor:middle;fill:#ffffff;fill-opacity:1;stroke-width:0.141691"
           id="path3286" />
        <path
           d="m 47.688138,48.884334 h -1.312765 v 3.474965 h -1.254848 v -3.474965 h -1.3192 v -1.093971 h 3.886813 z"
           style="font-style:normal;font-variant:normal;font-weight:900;font-stretch:normal;font-family:Raleway;-inkscape-font-specification:'Raleway Heavy';text-align:center;text-anchor:middle;fill:#ffffff;fill-opacity:1;stroke-width:0.141691"
           id="path3288" />
      </g>
      <path
         style="color:#000000;display:inline;overflow:visible;vector-effect:none;fill:#ac9565;fill-opacity:1;fill-rule:nonzero;stroke:none;stroke-width:0.0288356;stroke-linecap:butt;stroke-linejoin:miter;stroke-miterlimit:4;stroke-dasharray:none;stroke-dashoffset:0;stroke-opacity:1;paint-order:normal"
         d="m 34.052672,20.953585 c -0.11787,0.03 -0.18878,0.14943 -0.15879,0.26724 l 2.11374,8.30512 c 0.0302,0.11782 0.14942,0.18879 0.26723,0.1588 l 8.30506,-2.114 c 0.11784,-0.03 0.188251,-0.14929 0.15825,-0.2671 l -2.11373,-8.30513 c -0.0302,-0.11781 -0.14882,-0.18893 -0.26671,-0.15892 z m 3.39452,0.38983 2.11552,-0.53846 c 0.19061,-0.0485 0.38286,0.0657 0.43138,0.25633 0.0485,0.19062 -0.0657,0.38288 -0.25633,0.4314 l -2.11552,0.53845 c -0.19061,0.0485 -0.38339,-0.0656 -0.43192,-0.2562 -0.0486,-0.19062 0.0662,-0.383 0.25687,-0.43152 z"
         id="path873"
         inkscape:connector-curvature="0"
         sodipodi:nodetypes="sccssccssccsccsc" />
      <path
         style="color:#000000;font-style:normal;font-variant:normal;font-weight:normal;font-stretch:normal;font-size:medium;line-height:normal;font-family:sans-serif;font-variant-ligatures:normal;font-variant-position:normal;font-variant-caps:normal;font-variant-numeric:normal;font-variant-alternates:normal;font-variant-east-asian:normal;font-feature-settings:normal;font-variation-settings:normal;text-indent:0;text-align:start;text-decoration:none;text-decoration-line:none;text-decoration-style:solid;text-decoration-color:#000000;letter-spacing:normal;word-spacing:normal;text-transform:none;writing-mode:lr-tb;direction:ltr;text-orientation:mixed;dominant-baseline:auto;baseline-shift:baseline;text-anchor:start;white-space:normal;shape-padding:0;shape-margin:0;inline-size:0;clip-rule:nonzero;display:inline;overflow:visible;visibility:visible;opacity:1;isolation:auto;mix-blend-mode:normal;color-interpolation:sRGB;color-interpolation-filters:linearRGB;solid-color:#000000;solid-opacity:1;vector-effect:none;fill:#ffffff;fill-opacity:1;fill-rule:nonzero;stroke:none;stroke-width:0.53987;stroke-linecap:butt;stroke-linejoin:round;stroke-miterlimit:4;stroke-dasharray:none;stroke-dashoffset:0;stroke-opacity:1;color-rendering:auto;image-rendering:auto;shape-rendering:auto;text-rendering:auto;enable-background:accumulate;stop-color:#000000;stop-opacity:1"
         d="m 33.684952,23.483445 -0.86914,0.22266 1.94336,7.60547 a 0.44873587,0.44873587 0 0 0 0.54492,0.32422 l 11.320311,-2.89063 -0.22266,-0.86914 -10.884761,2.7793 z"
         id="path1803" />
      <g
         id="g1805"
         style="opacity:1;fill:#333481;fill-opacity:1;stroke-width:0.601605"
         transform="translate(-87.094354,-85.194281)">
        <path
           style="color:#000000;font-style:normal;font-variant:normal;font-weight:normal;font-stretch:normal;font-size:medium;line-height:normal;font-family:sans-serif;font-variant-ligatures:normal;font-variant-position:normal;font-variant-caps:normal;font-variant-numeric:normal;font-variant-alternates:normal;font-variant-east-asian:normal;font-feature-settings:normal;font-variation-settings:normal;text-indent:0;text-align:start;text-decoration:none;text-decoration-line:none;text-decoration-style:solid;text-decoration-color:#000000;letter-spacing:normal;word-spacing:normal;text-transform:none;writing-mode:lr-tb;direction:ltr;text-orientation:mixed;dominant-baseline:auto;baseline-shift:baseline;text-anchor:start;white-space:normal;shape-padding:0;shape-margin:0;inline-size:0;clip-rule:nonzero;display:inline;overflow:visible;visibility:visible;isolation:auto;mix-blend-mode:normal;color-interpolation:sRGB;color-interpolation-filters:linearRGB;solid-color:#000000;solid-opacity:1;vector-effect:none;fill:#333481;fill-opacity:1;fill-rule:nonzero;stroke:none;stroke-width:0.863791;stroke-linecap:butt;stroke-linejoin:miter;stroke-miterlimit:4;stroke-dasharray:none;stroke-dashoffset:0;stroke-opacity:1;color-rendering:auto;image-rendering:auto;shape-rendering:auto;text-rendering:auto;enable-background:accumulate;stop-color:#000000;stop-opacity:1"
           d="m 119.13019,111.55549 2.71067,10.18638"
           id="path1807" />
        <path
           style="color:#000000;font-style:normal;font-variant:normal;font-weight:normal;font-stretch:normal;font-size:medium;line-height:normal;font-family:sans-serif;font-variant-ligatures:normal;font-variant-position:normal;font-variant-caps:normal;font-variant-numeric:normal;font-variant-alternates:normal;font-variant-east-asian:normal;font-feature-settings:normal;font-variation-settings:normal;text-indent:0;text-align:start;text-decoration:none;text-decoration-line:none;text-decoration-style:solid;text-decoration-color:#000000;letter-spacing:normal;word-spacing:normal;text-transform:none;writing-mode:lr-tb;direction:ltr;text-orientation:mixed;dominant-baseline:auto;baseline-shift:baseline;text-anchor:start;white-space:normal;shape-padding:0;shape-margin:0;inline-size:0;clip-rule:nonzero;display:inline;overflow:visible;visibility:visible;isolation:auto;mix-blend-mode:normal;color-interpolation:sRGB;color-interpolation-filters:linearRGB;solid-color:#000000;solid-opacity:1;vector-effect:none;fill:#ffffff;fill-opacity:1;fill-rule:nonzero;stroke:none;stroke-width:0.863791;stroke-linecap:butt;stroke-linejoin:miter;stroke-miterlimit:4;stroke-dasharray:none;stroke-dashoffset:0;stroke-opacity:1;color-rendering:auto;image-rendering:auto;shape-rendering:auto;text-rendering:auto;enable-background:accumulate;stop-color:#000000;stop-opacity:1"
           d="m 119.82422,111.37109 -1.38867,0.36914 2.71093,10.18555 1.38868,-0.36914 z"
           id="path1809" />
      </g>
      <g
         id="g1789"
         transform="rotate(-10.155797,-522.92716,447.47439)"
         style="opacity:1;fill:#000000;stroke-width:0.601605">
        <path
           style="color:#000000;font-style:normal;font-variant:normal;font-weight:normal;font-stretch:normal;font-size:medium;line-height:normal;font-family:sans-serif;font-variant-ligatures:normal;font-variant-position:normal;font-variant-caps:normal;font-variant-numeric:normal;font-variant-alternates:normal;font-variant-east-asian:normal;font-feature-settings:normal;font-variation-settings:normal;text-indent:0;text-align:start;text-decoration:none;text-decoration-line:none;text-decoration-style:solid;text-decoration-color:#000000;letter-spacing:normal;word-spacing:normal;text-transform:none;writing-mode:lr-tb;direction:ltr;text-orientation:mixed;dominant-baseline:auto;baseline-shift:baseline;text-anchor:start;white-space:normal;shape-padding:0;shape-margin:0;inline-size:0;clip-rule:nonzero;display:inline;overflow:visible;visibility:visible;isolation:auto;mix-blend-mode:normal;color-interpolation:sRGB;color-interpolation-filters:linearRGB;solid-color:#000000;solid-opacity:1;vector-effect:none;fill:#ffffff;fill-opacity:1;fill-rule:nonzero;stroke:none;stroke-width:0.755815;stroke-linecap:round;stroke-linejoin:round;stroke-miterlimit:4;stroke-dasharray:none;stroke-dashoffset:59.5276;stroke-opacity:1;paint-order:stroke fill markers;color-rendering:auto;image-rendering:auto;shape-rendering:auto;text-rendering:auto;enable-background:accumulate;stop-color:#000000;stop-opacity:1"
           d="m 98.822266,142.07617 c -1.378361,0 -2.507813,1.12945 -2.507813,2.50781 0,1.37837 1.129452,2.50977 2.507813,2.50977 1.378364,0 2.509764,-1.1314 2.509764,-2.50977 0,-1.37836 -1.1314,-2.50781 -2.509764,-2.50781 z m 0,1.25586 c 0.69939,0 1.253904,0.55256 1.253904,1.25195 0,0.69939 -0.554514,1.25391 -1.253904,1.25391 -0.69939,0 -1.251953,-0.55452 -1.251954,-1.25391 10e-7,-0.69939 0.552564,-1.25195 1.251954,-1.25195 z"
           id="path1791" />
      </g>
      <g
         id="g1811"
         style="opacity:1;stroke-width:0.601605"
         transform="translate(-87.094354,-85.194281)">
        <path
           id="path1813"
           style="color:#000000;font-style:normal;font-variant:normal;font-weight:normal;font-stretch:normal;font-size:medium;line-height:normal;font-family:sans-serif;font-variant-ligatures:normal;font-variant-position:normal;font-variant-caps:normal;font-variant-numeric:normal;font-variant-alternates:normal;font-variant-east-asian:normal;font-feature-settings:normal;font-variation-settings:normal;text-indent:0;text-align:start;text-decoration:none;text-decoration-line:none;text-decoration-style:solid;text-decoration-color:#000000;letter-spacing:normal;word-spacing:normal;text-transform:none;writing-mode:lr-tb;direction:ltr;text-orientation:mixed;dominant-baseline:auto;baseline-shift:baseline;text-anchor:start;white-space:normal;shape-padding:0;shape-margin:0;inline-size:0;clip-rule:nonzero;display:inline;overflow:visible;visibility:visible;isolation:auto;mix-blend-mode:normal;color-interpolation:sRGB;color-interpolation-filters:linearRGB;solid-color:#000000;solid-opacity:1;vector-effect:none;fill:#ffffff;fill-opacity:1;fill-rule:nonzero;stroke:none;stroke-width:3.26472;stroke-linecap:butt;stroke-linejoin:miter;stroke-miterlimit:4;stroke-dasharray:none;stroke-dashoffset:0;stroke-opacity:1;color-rendering:auto;image-rendering:auto;shape-rendering:auto;text-rendering:auto;enable-background:accumulate;stop-color:#000000;stop-opacity:1"
           d="m 450.08789,443.17188 -22.74219,3.15234 -1.63867,19.73828 2.44922,0.41406 c 3.65061,0.62423 8.58557,3.90411 9.53125,10.29688 l 0.39844,2.6875 13.28711,-1.97071 -0.49414,-2.7539 c -1.17302,-6.54841 0.6998,-9.34559 3.21875,-12.02539 l 1.04101,-1.10742 z"
           transform="scale(0.26458333)" />
      </g>
      <path
         style="color:#000000;font-style:normal;font-variant:normal;font-weight:normal;font-stretch:normal;font-size:medium;line-height:normal;font-family:sans-serif;font-variant-ligatures:normal;font-variant-position:normal;font-variant-caps:normal;font-variant-numeric:normal;font-variant-alternates:normal;font-variant-east-asian:normal;font-feature-settings:normal;font-variation-settings:normal;text-indent:0;text-align:start;text-decoration:none;text-decoration-line:none;text-decoration-style:solid;text-decoration-color:#000000;letter-spacing:normal;word-spacing:normal;text-transform:none;writing-mode:lr-tb;direction:ltr;text-orientation:mixed;dominant-baseline:auto;baseline-shift:baseline;text-anchor:start;white-space:normal;shape-padding:0;shape-margin:0;inline-size:0;clip-rule:nonzero;display:inline;overflow:visible;visibility:visible;isolation:auto;mix-blend-mode:normal;color-interpolation:sRGB;color-interpolation-filters:linearRGB;solid-color:#000000;solid-opacity:1;vector-effect:none;fill:#ffffff;fill-opacity:1;fill-rule:nonzero;stroke:none;stroke-width:0.755815;stroke-linecap:round;stroke-linejoin:round;stroke-miterlimit:4;stroke-dasharray:none;stroke-dashoffset:59.5276;stroke-opacity:1;paint-order:stroke fill markers;color-rendering:auto;image-rendering:auto;shape-rendering:auto;text-rendering:auto;enable-background:accumulate;stop-color:#000000"
         d="m 24.638091,39.128515 c -1.35676,0.24304 -2.27129,1.55429 -2.02825,2.91105 0.24304,1.35678 1.55622,2.27095 2.91298,2.02791 1.35677,-0.24304 2.27095,-1.5562 2.02791,-2.91298 -0.24304,-1.35676 -1.55587,-2.26902 -2.91264,-2.02598 z m 0.22144,1.23618 c 0.68844,-0.12332 1.3317,0.32281 1.45502,1.01124 0.12332,0.68843 -0.32474,1.33204 -1.01317,1.45536 -0.68843,0.12332 -1.33011,-0.32508 -1.45343,-1.01351 -0.12332,-0.68843 0.32315,-1.32977 1.01158,-1.45309 z"
         id="path1797" />
    </g>
  </g>
</svg>
