<svg id="bac186a0-a24d-42f6-850d-ec349946444f" data-name="Layer 1" xmlns="http://www.w3.org/2000/svg" width="760" height="548.485"><defs><style>.a43f6a33-ee99-41f2-9578-f7fb9665dec5,.a472cd3f-a27a-4e55-9101-85844e000079,.e1836bf8-a0bb-4baa-ab29-ff2b518f20c5,.f825bfe6-30fe-4349-8b2e-0f67705d6fd7{fill:none}.a472cd3f-a27a-4e55-9101-85844e000079{stroke:#f3f3f3;stroke-miterlimit:10;stroke-width:1.5px}.aa37d3f0-02ce-4ccf-b2b9-f345f1b3a293{stroke-width:1.5px}.a43f6a33-ee99-41f2-9578-f7fb9665dec5,.e1836bf8-a0bb-4baa-ab29-ff2b518f20c5,.f825bfe6-30fe-4349-8b2e-0f67705d6fd7{stroke:#151515}.a43f6a33-ee99-41f2-9578-f7fb9665dec5,.aa37d3f0-02ce-4ccf-b2b9-f345f1b3a293,.e1836bf8-a0bb-4baa-ab29-ff2b518f20c5,.f825bfe6-30fe-4349-8b2e-0f67705d6fd7{stroke-linecap:round;stroke-linejoin:round}.a43f6a33-ee99-41f2-9578-f7fb9665dec5{stroke-dasharray:3.4 3.4}.a0913683-333a-4c5a-9b45-8eed640c2439,.adf1b6e8-2fef-443e-9d0d-12b97679dc23{fill:#151515}.e1836bf8-a0bb-4baa-ab29-ff2b518f20c5{stroke-dasharray:3}.e0b56b7a-2436-47fb-9d30-4c47f24e9401{fill:#e8e8e8}.adf1b6e8-2fef-443e-9d0d-12b97679dc23{font-size:12px;font-family:RedHatText,&quot;Red Hat Text&quot;,Overpass,&quot;Helvetica Neue&quot;,Arial,sans-serif;font-weight:500}.ad2c3f11-df0f-41ff-83e9-e1bf0c3abf71{font-size:10px}.aa37d3f0-02ce-4ccf-b2b9-f345f1b3a293,.ad2c3f11-df0f-41ff-83e9-e1bf0c3abf71{fill:#fff}.ad2c3f11-df0f-41ff-83e9-e1bf0c3abf71{font-family:RedHatText,&quot;Red Hat Text&quot;,Overpass,&quot;Helvetica Neue&quot;,Arial,sans-serif;font-weight:700}.aa37d3f0-02ce-4ccf-b2b9-f345f1b3a293{stroke:#5b5b5b}</style></defs><path class="a472cd3f-a27a-4e55-9101-85844e000079" d="M744.531 161.485v80h-100"/><path class="a472cd3f-a27a-4e55-9101-85844e000079" d="M739.531 156.485v80h-100"/><path class="f825bfe6-30fe-4349-8b2e-0f67705d6fd7" d="M684.532 231.485v1.5"/><path class="a43f6a33-ee99-41f2-9578-f7fb9665dec5" d="M684.532 236.385v11.9"/><path class="f825bfe6-30fe-4349-8b2e-0f67705d6fd7" d="M684.532 249.985v1.5h-1.5"/><path stroke-dasharray="3.007 3.007" stroke-linecap="round" stroke-linejoin="round" stroke="#151515" fill="none" d="M680.024 251.485H68.003"/><path class="f825bfe6-30fe-4349-8b2e-0f67705d6fd7" d="M66.499 251.485h-1.5v-1.5"/><path class="a43f6a33-ee99-41f2-9578-f7fb9665dec5" d="M64.999 246.585v-11.9"/><path class="f825bfe6-30fe-4349-8b2e-0f67705d6fd7" d="M64.999 232.985v-1.5M684.532 141.809v-12.824H64.999v12.824"/><path class="a0913683-333a-4c5a-9b45-8eed640c2439" d="M689.518 140.35l-4.986 8.635-4.986-8.635h9.972zM60.013 140.35l4.986 8.635 4.987-8.635h-9.973z"/><path class="f825bfe6-30fe-4349-8b2e-0f67705d6fd7" d="M374.688 128.985v-44.44"/><path class="e1836bf8-a0bb-4baa-ab29-ff2b518f20c5" d="M220 231.485v20M374.688 231.485v20M529.531 231.485v20"/><path class="f825bfe6-30fe-4349-8b2e-0f67705d6fd7" d="M220 128.985v12.824"/><path class="a0913683-333a-4c5a-9b45-8eed640c2439" d="M215.014 140.35l4.986 8.635 4.987-8.635h-9.973z"/><path class="f825bfe6-30fe-4349-8b2e-0f67705d6fd7" d="M374.688 128.985v12.824"/><path class="a0913683-333a-4c5a-9b45-8eed640c2439" d="M369.701 140.35l4.987 8.635 4.986-8.635h-9.973z"/><path class="f825bfe6-30fe-4349-8b2e-0f67705d6fd7" d="M529.531 128.985v12.824"/><path class="a0913683-333a-4c5a-9b45-8eed640c2439" d="M524.544 140.35l4.987 8.635 4.986-8.635h-9.973z"/><path class="e0b56b7a-2436-47fb-9d30-4c47f24e9401" d="M15 151.485h100v80H15z"/><text class="adf1b6e8-2fef-443e-9d0d-12b97679dc23" transform="translate(40.899 188.309)">Network<tspan x="-.444" y="13">mapping</tspan></text><g><path class="e0b56b7a-2436-47fb-9d30-4c47f24e9401" d="M479.531 151.485h100v80h-100z"/><text class="adf1b6e8-2fef-443e-9d0d-12b97679dc23" transform="translate(510.464 188.309)">Target<tspan x="-4.764" y="13">provider</tspan></text></g><path class="e0b56b7a-2436-47fb-9d30-4c47f24e9401" d="M634.531 151.485h100v80h-100z"/><text class="adf1b6e8-2fef-443e-9d0d-12b97679dc23" transform="translate(665.692 188.309)">Virtual<tspan x="-7.662" y="13">machines</tspan></text><g><path class="a0913683-333a-4c5a-9b45-8eed640c2439" d="M383.688 104.266a9 9 0 11-9-9 9 9 0 019 9z"/><text class="ad2c3f11-df0f-41ff-83e9-e1bf0c3abf71" transform="translate(372.762 107.55)">1</text></g><g><text transform="translate(362.73 80.817)" font-size="11" font-family="RedHatText,&quot;Red Hat Text&quot;,Overpass,&quot;Helvetica Neue&quot;,Arial,sans-serif" font-weight="500" fill="#151515">User</text><path class="aa37d3f0-02ce-4ccf-b2b9-f345f1b3a293" d="M396.329 64.25a21.642 21.642 0 10-43.283 0z"/><ellipse class="aa37d3f0-02ce-4ccf-b2b9-f345f1b3a293" cx="374.688" cy="31.651" rx="10.865" ry="10.902"/></g><g><path class="f825bfe6-30fe-4349-8b2e-0f67705d6fd7" d="M424.687 351.425h1.5"/><path stroke-dasharray="2.811 2.811" stroke-linecap="round" stroke-linejoin="round" stroke="#151515" fill="none" d="M428.998 351.425h37.952"/><path class="f825bfe6-30fe-4349-8b2e-0f67705d6fd7" d="M468.355 351.425h1.5"/><path class="a0913683-333a-4c5a-9b45-8eed640c2439" d="M468.396 356.412l8.635-4.987-8.635-4.986v9.973z"/><path class="f825bfe6-30fe-4349-8b2e-0f67705d6fd7" d="M374.687 251.485v1.5"/><path stroke-dasharray="3.155 3.155" stroke-linecap="round" stroke-linejoin="round" stroke="#151515" fill="none" d="M374.687 256.14v42.592"/><path class="f825bfe6-30fe-4349-8b2e-0f67705d6fd7" d="M374.687 300.309v1.5"/><path class="a0913683-333a-4c5a-9b45-8eed640c2439" d="M369.7 300.35l4.987 8.635 4.986-8.635H369.7z"/><path class="e0b56b7a-2436-47fb-9d30-4c47f24e9401" d="M634.531 451.485h100v80h-100z"/><text class="adf1b6e8-2fef-443e-9d0d-12b97679dc23" transform="translate(662.92 481.809)">Virtual-<tspan x="-4.872" y="13">Machine-</tspan><tspan x="2.598" y="26">Import</tspan></text><path class="f825bfe6-30fe-4349-8b2e-0f67705d6fd7" d="M684.531 391.425v1.5"/><path stroke-dasharray="3.155 3.155" stroke-linecap="round" stroke-linejoin="round" stroke="#151515" fill="none" d="M684.531 396.08v42.592"/><path class="f825bfe6-30fe-4349-8b2e-0f67705d6fd7" d="M684.531 440.249v1.5"/><path class="a0913683-333a-4c5a-9b45-8eed640c2439" d="M679.545 440.29l4.986 8.635 4.987-8.635h-9.973z"/><g><path class="a0913683-333a-4c5a-9b45-8eed640c2439" d="M693.531 416.456a9 9 0 11-9-9 9 9 0 019 9z"/><text class="ad2c3f11-df0f-41ff-83e9-e1bf0c3abf71" transform="translate(681.081 419.741)">4</text></g><path fill="#353789" d="M634.531 311.425h100v80h-100z"/><text transform="translate(657.292 348.472)" fill="#fff" font-family="RedHatText,&quot;Red Hat Text&quot;,Overpass,&quot;Helvetica Neue&quot;,Arial,sans-serif" font-weight="500" font-size="12">Migration<tspan x="-1.428" y="13">Controller</tspan></text><path class="e0b56b7a-2436-47fb-9d30-4c47f24e9401" d="M324.687 311.425h100v80h-100z"/><text class="adf1b6e8-2fef-443e-9d0d-12b97679dc23" transform="translate(362.309 354.749)">Plan</text><g><path class="a0913683-333a-4c5a-9b45-8eed640c2439" d="M383.687 275.706a9 9 0 11-9-9 9 9 0 019 9z"/><text class="ad2c3f11-df0f-41ff-83e9-e1bf0c3abf71" transform="translate(371.701 278.991)">2</text></g><g><path class="f825bfe6-30fe-4349-8b2e-0f67705d6fd7" d="M579.531 351.425H624.7"/><path class="a0913683-333a-4c5a-9b45-8eed640c2439" d="M623.241 356.412l8.635-4.987-8.635-4.986v9.973z"/></g><path class="e0b56b7a-2436-47fb-9d30-4c47f24e9401" d="M479.531 311.425h100v80h-100z"/><text class="adf1b6e8-2fef-443e-9d0d-12b97679dc23" transform="translate(502.292 354.749)">Migration</text><g><path class="a0913683-333a-4c5a-9b45-8eed640c2439" d="M456.109 351.426a9 9 0 11-9-9 9 9 0 019 9z"/><text class="ad2c3f11-df0f-41ff-83e9-e1bf0c3abf71" transform="translate(443.943 354.711)">3</text></g></g><path class="e0b56b7a-2436-47fb-9d30-4c47f24e9401" d="M170 151.485h100v80H170z"/><text class="adf1b6e8-2fef-443e-9d0d-12b97679dc23" transform="translate(197.357 188.309)">Storage<tspan x="-1.902" y="13">mapping</tspan></text><path class="e0b56b7a-2436-47fb-9d30-4c47f24e9401" d="M324.688 151.485h100v80h-100z"/><text class="adf1b6e8-2fef-443e-9d0d-12b97679dc23" transform="translate(354.852 188.309)">Source<tspan x="-3.996" y="13">provider</tspan></text><g><text transform="translate(0 531.502)" fill="#f3f3f3" font-family="RedHatText,&quot;Red Hat Text&quot;,Overpass,&quot;Helvetica Neue&quot;,Arial,sans-serif" font-size="10">136_0121</text><path fill="none" d="M0 508.485h760v40H0z"/></g></svg>
